<svg xmlns="http://www.w3.org/2000/svg" viewBox="0 0 64 64">
<rect width="64" height="64" rx="12" fill="#262141"/>
<g transform="translate(6.4384 40.7388) scale(0.024249)">
<g id="crr-mark" fill="#F2EFE9"><path id="C" d="M700.13 -259.17 527.23 -315.65C510.93 -292.47 489.52 -270.45 468.12 -249.2C425.58 -206.95 370.78 -185.16 325.51 -184.79C287.65 -184.48 254.87 -190.59 241.57 -217.76C238.16 -224.72 234.68 -237.45 235.32 -246.39C237.29 -273.82 240.65 -294.09 254 -323.83C300.91 -428.29 385.56 -540.68 511.33 -535.72C542.41 -534.49 569.31 -526.22 580.21 -503.26C592.26 -477.86 584.34 -438.7 574.66 -404.86L807.77 -461.6C844.87 -599.74 807.52 -706.58 674.1 -727.92C653.93 -731.15 620.51 -734.25 595.8 -733.04C528.79 -729.73 468.12 -716.75 400.85 -686.52H474.98V-652.01H333.93C294.32 -629.15 256.43 -600.41 221.31 -567.92H313.78V-533.42H186.37C161.1 -506.84 137.67 -478.5 116.55 -449.33H214.44V-414.82H92.89C74.8 -386.93 58.92 -358.64 45.64 -330.73H148.31V-296.23H30.48C18.75 -267.09 10.14 -238.75 5.12 -212.14H112.62V-177.89H0.6C-0.41 -163.57 -0.16 -149.97 1.44 -137.25C3.47 -121.13 6.83 -106.75 11.61 -93.8H129.06V-59.3H29.96C44.69 -39.2 64.92 -23.32 91.19 -9.46C119.83 5.65 159.74 11.98 198.87 12.52C383.05 15.09 555.88 -78.86 700.13 -259.17Z"/><path id="R1" d="M995.23 -720 971.17 -674.76H1078.11V-641.79H953.64L910.43 -560.51H1001.78V-527.54H892.89L849.54 -446.01H941.28V-413.29H832.15L788.79 -331.76H895.99V-298.79H771.26L727.91 -217.25H834.99V-184.54H710.52L667.16 -103H774.36V-70.03H649.63L612.4 0H817.9L932.21 -215H996.71L986.4 0H1216.9L1227.14 -260C1316.5 -306.72 1391.92 -393.53 1431.57 -470.5C1510.15 -623.07 1468.93 -720 1315.73 -720ZM1117.15 -562.81H1241.36C1335.8 -562.81 1251.33 -408 1163.14 -408H1034.83Z"/><path id="R2" d="M1632.94 -720 1608.89 -674.76H1715.83V-641.79H1591.36L1548.14 -560.51H1639.5V-527.54H1530.61L1487.26 -446.01H1578.99V-413.29H1469.86L1426.51 -331.76H1533.71V-298.79H1408.98L1365.63 -217.25H1472.7V-184.54H1348.23L1304.88 -103H1412.08V-70.03H1287.35L1250.11 0H1455.61L1569.93 -215H1634.43L1624.11 0H1854.61L1864.85 -260C1954.21 -306.72 2029.64 -393.53 2069.28 -470.5C2147.86 -623.07 2106.64 -720 1953.44 -720ZM1754.86 -562.81H1879.08C1973.52 -562.81 1889.04 -408 1800.85 -408H1672.55Z"/></g>
</g>
</svg>
